<?xml version="1.0" standalone="no"?>
<!DOCTYPE svg PUBLIC "-//W3C//DTD SVG 20010904//EN"
 "http://www.w3.org/TR/2001/REC-SVG-20010904/DTD/svg10.dtd">
<svg version="1.0" xmlns="http://www.w3.org/2000/svg"
 width="512.000000pt" height="512.000000pt" viewBox="0 0 512.000000 512.000000"
 preserveAspectRatio="xMidYMid meet">

<g transform="translate(0.000000,512.000000) scale(0.100000,-0.100000)"
fill="#000000" stroke="none">
<path d="M109 5092 c-43 -22 -59 -38 -81 -81 l-28 -54 2 -1637 3 -1638 30 -44
c17 -23 49 -53 70 -65 39 -22 49 -23 303 -23 l262 0 0 190 c0 204 4 228 54
293 14 19 50 47 78 63 l53 29 263 3 c243 3 263 5 257 20 -15 36 -38 119 -54
195 l-17 80 -62 22 c-71 26 -124 63 -149 105 l-17 30 -303 0 -303 0 0 40 0 40
284 0 283 0 5 83 c5 104 36 165 110 220 28 20 56 37 63 37 8 0 20 -55 35 -162
13 -90 26 -169 30 -176 3 -7 85 153 186 364 98 207 182 378 185 380 4 2 87 -5
185 -16 499 -54 945 -54 1448 1 99 10 181 17 183 15 5 -5 342 -703 354 -735 5
-13 12 -22 14 -19 3 3 17 81 31 174 13 92 27 170 30 173 9 10 75 -33 109 -71
l35 -38 160 0 160 0 0 -35 0 -35 -145 0 -145 0 0 -80 0 -80 310 0 310 0 0 -40
0 -40 -321 0 -321 0 -41 -45 c-38 -44 -120 -95 -152 -95 -8 0 -15 -4 -15 -10
0 -7 172 -10 495 -10 l495 0 0 -35 0 -35 -516 -2 -517 -3 -28 -100 c-15 -55
-28 -103 -29 -107 0 -5 110 -8 243 -8 270 0 309 -6 376 -59 22 -17 51 -55 65
-83 25 -50 26 -58 26 -245 l0 -193 260 0 c239 0 264 2 299 20 48 24 87 70 101
118 8 26 10 530 8 1669 l-3 1631 -30 43 c-16 23 -48 52 -70 63 l-40 21 -2406
3 -2406 2 -54 -28z m1936 -317 c-49 -13 -108 -29 -130 -37 -32 -10 -195 -13
-842 -10 l-803 2 0 35 0 35 933 0 932 -1 -90 -24z m2315 -10 l0 -35 -385 0
-385 0 0 35 0 35 385 0 385 0 0 -35z m490 0 l0 -35 -155 0 -155 0 0 35 0 35
155 0 155 0 0 -35z m-4380 -235 l0 -40 -100 0 -100 0 0 40 0 40 100 0 100 0 0
-40z m1050 21 c0 -11 -12 -29 -27 -40 -25 -21 -34 -21 -387 -19 l-361 3 -3 23
c-8 54 -23 52 393 52 373 0 385 -1 385 -19z m3330 -21 l0 -40 -435 0 -435 0 0
40 0 40 435 0 435 0 0 -40z m-3730 -235 l0 -35 -355 0 -355 0 0 35 0 35 355 0
355 0 0 -35z m3240 0 l0 -35 -257 0 -258 0 -23 35 -22 35 280 0 280 0 0 -35z
m-3730 -235 l0 -40 -177 2 -178 3 -3 38 -3 37 180 0 181 0 0 -40z m4090 0 l0
-40 -379 0 -379 0 -11 31 c-6 18 -11 36 -11 40 0 5 176 9 390 9 l390 0 0 -40z
m-3609 -195 c3 -2 3 -20 1 -40 l-4 -35 -319 0 -319 0 0 40 0 40 318 0 c175 0
321 -2 323 -5z m3249 -35 l0 -40 -174 0 -174 0 -5 33 c-2 17 -3 35 0 40 2 4
83 7 179 7 l174 0 0 -40z m0 -255 l0 -55 -175 0 -175 0 0 55 0 55 175 0 175 0
0 -55z m-3260 -20 l0 -35 -415 0 -415 0 0 35 0 35 415 0 415 0 0 -35z m3750 0
l0 -35 -155 0 -155 0 0 35 0 35 155 0 155 0 0 -35z m-4382 -232 l-3 -38 -95 0
-95 0 -3 38 -3 37 101 0 101 0 -3 -37z m4380 0 l-3 -38 -415 0 -415 0 -3 23
c-8 54 -25 52 423 52 l416 0 -3 -37z m-3748 -233 l0 -40 -345 0 -345 0 0 33
c0 19 3 37 7 40 3 4 159 7 345 7 l338 0 0 -40z m3260 0 l0 -40 -175 0 -175 0
0 33 c0 19 3 37 7 40 3 4 82 7 175 7 l168 0 0 -40z m460 -95 l0 -35 -100 0
-100 0 0 35 0 35 100 0 100 0 0 -35z m-4190 -140 l0 -35 -180 0 -180 0 0 35 0
35 180 0 180 0 0 -35z m440 -550 l0 -35 -390 0 -390 0 0 35 0 35 390 0 390 0
0 -35z"/>
<path d="M1910 2889 c-134 -54 -154 -283 -31 -366 45 -30 64 -29 142 9 80 40
100 69 106 152 4 53 1 69 -24 116 -42 83 -119 118 -193 89z"/>
<path d="M3095 2886 c-80 -35 -125 -138 -104 -237 9 -43 15 -52 41 -61 41 -14
142 -68 149 -80 10 -15 53 8 87 46 87 99 59 271 -54 326 -47 23 -77 25 -119 6z"/>
</g>
</svg>
